# xmcd
#
# Track frame offsets: 
#        150
#        17931
#        29325
#        65407
#        78382
#        93981
#        106157
#        120819
#        133054
#        163246
#        172991
#
# Disc length: 2571 seconds
#
# Revision: 1
# Processed by: cddbd v1.5.2PL0 Copyright (c) Steve Scherf et al.
# Submitted via: ExactAudioCopy v0.95a5
#
DISCID=840a090b
DTITLE=Hobo Blues Band - Tiltott gyümölcs CD1
DYEAR=1988
DGENRE=Blues
TTITLE0=Moszkva tér blues
TTITLE1=Feketebárány blues
TTITLE2=Othello blues
TTITLE3=Gazember
TTITLE4=Tobacco Road
TTITLE5=Kopaszkutya
TTITLE6=Illatos dal
TTITLE7=Bunkó vagyok
TTITLE8=Belladonna
TTITLE9=Farock
TTITLE10=Torta
EXTD=
EXTT0=
EXTT1=
EXTT2=
EXTT3=
EXTT4=
EXTT5=
EXTT6=
EXTT7=
EXTT8=
EXTT9=
EXTT10=
PLAYORDER=
